<?xml version="1.0" standalone="no"?>
<!DOCTYPE svg PUBLIC "-//W3C//DTD SVG 20010904//EN"
 "http://www.w3.org/TR/2001/REC-SVG-20010904/DTD/svg10.dtd">
<svg version="1.0" xmlns="http://www.w3.org/2000/svg"
 width="500.000000pt" height="500.000000pt" viewBox="0 0 500.000000 500.000000"
 preserveAspectRatio="xMidYMid meet">
<metadata>
Created by potrace 1.11, written by Peter Selinger 2001-2013
</metadata>
<g transform="translate(0.000000,500.000000) scale(0.100000,-0.100000)"
fill="#000000" stroke="none">
<path d="M1750 4440 c-85 -21 -175 -44 -200 -50 -72 -18 -188 -77 -237 -120
-25 -22 -52 -40 -59 -40 -18 0 -17 -10 1 -34 21 -28 18 -42 -4 -22 -11 10 -25
15 -30 11 -16 -9 -13 -25 5 -25 9 0 14 -6 11 -12 -2 -7 -11 -12 -19 -12 -8 1
-23 -14 -33 -32 -19 -36 -44 -51 -55 -33 -4 6 -10 -1 -14 -18 -4 -15 -17 -44
-30 -63 -53 -82 -76 -120 -76 -126 0 -3 -6 -20 -14 -37 -8 -18 -17 -43 -20
-57 -3 -14 -16 -65 -30 -115 -25 -96 -46 -256 -46 -358 l0 -62 40 47 c22 26
49 50 60 53 11 4 20 13 20 21 0 8 8 27 18 41 9 15 22 43 27 62 6 20 20 41 33
47 12 6 19 14 16 17 -4 4 -1 13 6 22 17 20 70 20 70 0 0 -8 2 -15 4 -15 14 0
72 25 78 34 15 22 8 33 -17 28 -29 -5 -32 4 -10 28 14 16 14 17 -10 13 -14 -3
-25 -9 -25 -14 0 -5 -5 -9 -11 -9 -6 0 -8 17 -4 48 5 33 3 43 -4 32 -12 -18
-26 -7 -17 15 3 9 11 13 17 10 6 -4 13 2 16 14 7 26 15 26 33 1 8 -11 24 -20
35 -20 12 0 26 -5 32 -11 20 -20 34 0 27 39 -4 20 -11 43 -16 49 -6 7 -7 20
-4 29 4 9 -1 28 -9 41 -9 13 -13 28 -10 33 3 6 2 10 -4 10 -6 0 -15 10 -22 21
-9 17 -8 23 2 30 10 6 11 9 2 9 -18 0 -16 19 2 26 8 3 22 -1 30 -10 9 -9 26
-16 38 -16 21 1 21 1 4 14 -13 10 -16 21 -11 40 8 32 43 45 60 22 11 -16 13
-15 27 4 11 16 21 20 36 15 12 -3 21 -10 21 -14 0 -4 7 -8 15 -8 22 0 13 20
-14 33 -21 11 -22 13 -5 22 10 5 27 7 38 2 12 -4 34 -10 50 -14 26 -6 28 -5
17 8 -8 9 -20 16 -27 16 -19 0 -18 19 1 27 9 3 25 -3 35 -12 11 -10 23 -15 28
-10 4 4 1 10 -5 12 -22 8 -14 32 13 39 16 4 23 11 20 21 -3 8 4 33 15 55 12
24 19 53 17 69 -5 35 -2 36 22 7 l18 -23 18 30 c11 19 39 40 77 59 56 26 70
28 201 31 78 1 177 -2 221 -7 178 -22 182 -22 163 -2 -9 9 -30 17 -47 16 -17
0 -34 5 -38 12 -11 18 -81 34 -201 46 -156 15 -194 12 -362 -30z m30 -54 c0
-17 -14 -29 -23 -20 -8 8 3 34 14 34 5 0 9 -6 9 -14z m-133 -18 c-3 -8 -6 -5
-6 6 -1 11 2 17 5 13 3 -3 4 -12 1 -19z m78 -37 c3 -5 1 -12 -5 -16 -5 -3 -10
1 -10 9 0 18 6 21 15 7z m-74 -34 c-8 -8 -11 -7 -11 4 0 20 13 34 18 19 3 -7
-1 -17 -7 -23z m-311 -82 c0 -8 -7 -15 -15 -15 -8 0 -15 7 -15 15 0 8 7 15 15
15 8 0 15 -7 15 -15z m-92 -259 c2 -25 0 -36 -7 -31 -23 13 -10 -15 13 -30 14
-9 32 -28 41 -42 20 -30 9 -46 -33 -49 -15 -1 -35 -2 -44 -3 -11 0 -18 -9 -18
-21 0 -11 -5 -20 -11 -20 -6 0 -9 17 -7 41 3 44 -15 66 -25 29 -3 -11 -19 -25
-36 -31 -17 -6 -31 -17 -31 -25 0 -8 -4 -14 -10 -14 -29 0 3 42 71 93 31 23
44 38 39 47 -4 7 -12 10 -18 6 -6 -3 -13 -2 -17 3 -7 12 31 34 44 27 5 -3 12
1 15 10 3 8 2 12 -4 9 -14 -9 -12 19 2 33 20 20 33 8 36 -32z m-93 -177 c4 -6
5 -13 2 -16 -8 -7 -47 7 -47 18 0 13 37 11 45 -2z m145 -20 c0 -5 -4 -9 -10
-9 -5 0 -10 7 -10 16 0 8 5 12 10 9 6 -3 10 -10 10 -16z m-163 -46 c-9 -9 -19
-14 -23 -11 -10 10 6 28 24 28 15 0 15 -1 -1 -17z m19 -60 c-10 -11 -25 18
-18 35 4 13 8 11 15 -6 6 -12 7 -25 3 -29z m24 -54 c0 -10 -4 -19 -10 -19 -12
0 -31 35 -24 43 11 11 34 -5 34 -24z"/>
<path d="M1204 3867 c-8 -9 -4 -15 14 -24 32 -17 48 -6 26 18 -20 22 -25 23
-40 6z"/>
<path d="M2549 4261 c6 -11 16 -23 21 -26 6 -3 10 -14 10 -23 0 -10 8 -29 17
-42 13 -17 18 -44 18 -87 0 -47 5 -69 21 -90 12 -16 25 -40 29 -53 4 -14 14
-35 21 -48 16 -24 14 -26 -31 -35 -15 -3 -8 -9 30 -26 27 -12 51 -24 53 -26 3
-2 -13 -20 -34 -40 -30 -29 -35 -38 -24 -45 12 -7 11 -12 -4 -29 -24 -27 -38
-26 -166 5 -79 19 -143 26 -255 30 -82 3 -156 1 -162 -3 -7 -5 -17 -31 -22
-57 -10 -54 -23 -71 -45 -63 -12 5 -16 20 -16 57 0 44 -2 51 -17 46 -10 -3
-115 -30 -233 -62 -118 -31 -264 -72 -325 -91 -60 -19 -126 -35 -145 -36 -23
-1 -41 -10 -53 -24 -21 -26 -47 -30 -47 -8 0 9 9 15 23 16 17 0 14 3 -13 13
-35 12 -54 11 -33 -2 18 -11 1 -77 -20 -76 -13 1 -15 -4 -11 -21 3 -13 0 -33
-6 -45 -10 -18 -8 -24 7 -36 38 -29 60 -28 91 7 l29 33 99 -17 c77 -13 101
-14 113 -4 10 9 15 9 18 1 3 -9 18 -8 56 2 79 20 205 34 383 41 l161 6 5 -80
c7 -92 29 -144 82 -190 34 -30 58 -41 144 -63 34 -9 42 -15 37 -28 -4 -11 5
-26 30 -47 l36 -30 -40 -48 c-50 -60 -91 -143 -98 -197 -4 -28 -9 -37 -14 -28
-6 8 -9 -2 -9 -29 0 -24 -7 -48 -16 -57 -10 -10 -14 -29 -12 -53 3 -31 5 -34
12 -18 38 100 85 165 118 165 13 0 18 -5 15 -14 -3 -8 -9 -30 -12 -49 -4 -18
-20 -46 -36 -61 -16 -15 -29 -35 -29 -44 0 -14 -2 -15 -10 -2 -7 11 -11 9 -19
-13 -6 -16 -10 -38 -10 -50 1 -17 2 -18 6 -4 6 21 23 12 23 -12 0 -24 -26 -46
-35 -31 -4 7 -16 3 -35 -10 -15 -11 -33 -20 -38 -20 -6 0 -13 -18 -17 -39 -12
-73 -55 -96 -55 -30 0 18 -4 28 -10 24 -5 -3 -10 -20 -10 -36 0 -20 -4 -29
-12 -26 -7 2 -12 11 -10 18 1 8 -7 3 -18 -10 -11 -13 -20 -30 -20 -38 0 -8 -5
-11 -11 -8 -5 4 -15 -7 -22 -24 -6 -17 -15 -31 -19 -31 -16 0 -7 37 26 105 23
49 30 74 23 83 -13 17 -21 15 -32 -7 -6 -11 -18 -35 -29 -55 -24 -48 -38 -46
-30 4 6 36 5 40 -15 40 -18 0 -20 3 -11 19 5 11 10 39 10 63 l0 43 -20 -32
c-21 -36 -40 -43 -40 -16 0 13 -3 14 -12 5 -8 -8 -8 -15 2 -26 10 -13 9 -17
-4 -22 -9 -4 -19 -4 -23 -1 -9 9 -5 87 5 100 12 15 21 77 12 77 -11 0 -72
-159 -65 -170 3 -5 1 -11 -5 -15 -5 -3 -10 -30 -9 -58 l1 -52 14 33 c14 33 28
40 39 21 9 -13 -82 -99 -104 -99 -12 1 -11 5 8 20 22 19 22 20 3 20 -12 0 -24
-5 -27 -11 -5 -6 -12 -4 -20 8 -12 16 -10 19 18 28 l32 10 -3 68 c-4 65 2 79
25 56 8 -8 9 3 5 37 -5 44 -3 47 15 42 17 -5 20 -1 19 18 -1 18 -7 24 -23 24
-12 0 -23 7 -25 16 -3 15 -6 14 -26 -2 -13 -11 -25 -28 -27 -39 -2 -11 -4 -22
-4 -24 -1 -2 -8 2 -16 9 -11 9 -12 17 -5 30 13 24 13 27 -5 33 -21 9 -14 -57
9 -82 18 -20 18 -21 -13 -56 -29 -34 -42 -75 -22 -75 5 0 12 -7 15 -16 4 -12
1 -14 -14 -9 -15 5 -23 0 -32 -22 -15 -34 -26 -43 -55 -43 -25 0 -29 10 -12
27 13 13 1 83 -14 83 -6 0 0 11 13 25 18 19 20 25 8 25 -9 0 -18 -7 -22 -15
-3 -8 -10 -15 -15 -15 -13 0 -3 29 16 52 8 9 16 24 17 33 1 9 9 21 17 26 25
16 -15 11 -47 -6 -16 -8 -37 -15 -46 -15 -12 0 -18 -8 -18 -22 0 -13 4 -18 8
-13 9 12 42 16 42 4 0 -4 -9 -13 -19 -18 -31 -17 -37 -95 -11 -154 l21 -48 57
3 c48 3 57 6 60 23 7 42 11 47 26 33 9 -9 11 -17 4 -25 -6 -8 -5 -19 2 -34 11
-19 10 -21 -3 -16 -16 6 -51 -35 -40 -47 12 -12 25 -6 20 9 -4 9 5 20 25 30
39 19 38 19 38 -5 0 -11 -4 -20 -9 -20 -6 0 -9 -9 -8 -20 1 -11 4 -20 8 -20 4
0 5 -9 2 -20 -6 -22 -29 -27 -36 -7 -2 6 -7 9 -11 6 -3 -3 -4 -13 -1 -21 5
-12 13 -13 44 -5 54 15 76 -9 84 -85 3 -33 2 -58 -4 -58 -5 0 -9 -5 -9 -10 0
-6 8 -10 17 -8 14 2 18 -5 20 -42 1 -35 7 -50 30 -69 l28 -24 3 21 c5 34 17
26 29 -21 17 -61 89 -127 139 -127 35 0 35 -1 29 -32 -7 -33 -7 -33 14 -14 19
17 21 17 27 2 3 -9 14 -15 23 -14 10 2 17 -5 19 -19 2 -16 -5 -26 -27 -38 -17
-8 -35 -24 -41 -35 -6 -10 -30 -33 -54 -50 -48 -32 -56 -47 -58 -103 -1 -21
-7 -38 -15 -41 -8 -3 -12 -10 -9 -15 3 -4 -4 -17 -15 -27 -16 -15 -18 -20 -7
-29 7 -6 18 -19 24 -30 10 -16 21 -20 65 -18 30 1 74 9 98 17 46 17 146 22
155 8 3 -5 -6 -35 -19 -68 -32 -77 -32 -94 0 -94 32 0 95 30 95 45 0 7 23 30
51 51 57 43 72 66 90 137 22 88 112 122 236 92 57 -14 80 -15 128 -6 81 15 87
14 80 -8 -3 -11 -1 -22 5 -26 17 -10 11 -44 -10 -62 -11 -10 -20 -20 -20 -24
0 -11 84 -17 98 -6 24 19 12 -11 -17 -42 -34 -36 -47 -39 -54 -11 -9 36 -24
21 -30 -31 -6 -45 -13 -58 -52 -96 -36 -34 -44 -47 -36 -57 9 -10 2 -21 -26
-48 -21 -18 -52 -59 -68 -90 -31 -58 -140 -158 -171 -158 -29 0 -55 21 -85 68
-24 38 -29 57 -29 106 l0 60 -42 -40 -43 -40 -85 8 c-47 5 -109 15 -138 24
-45 13 -52 18 -47 34 4 13 2 20 -7 20 -27 0 -51 27 -57 66 -5 29 -13 42 -34
52 -18 9 -27 20 -25 30 7 36 -27 55 -114 62 -82 7 -83 8 -118 50 -76 93 -150
172 -197 209 -91 71 -263 278 -263 314 0 5 -13 37 -30 71 -41 84 -50 142 -49
329 1 115 -4 182 -15 230 -9 38 -16 83 -16 101 0 39 -28 136 -39 136 -10 0
-61 78 -61 93 0 20 -59 137 -68 137 -12 0 12 -130 36 -195 10 -27 33 -78 50
-112 18 -34 32 -64 32 -67 0 -2 -39 -26 -87 -52 -49 -26 -158 -91 -243 -144
-85 -54 -209 -128 -275 -165 -171 -97 -305 -188 -385 -262 l-70 -65 0 -899 0
-899 2500 0 2500 0 -1 453 c-1 248 -4 491 -8 540 l-6 87 -95 46 c-105 49 -136
52 -209 14 -78 -39 -81 -80 -7 -80 25 0 48 5 51 10 8 13 25 3 25 -16 0 -8 -10
-14 -26 -14 -19 0 -28 -7 -37 -30 -11 -30 -27 -41 -27 -19 0 8 -5 8 -15 -1 -8
-7 -15 -18 -15 -24 0 -38 -134 -106 -199 -101 -20 1 -53 7 -74 13 -24 6 -63 7
-108 1 l-70 -9 -31 38 c-18 20 -71 77 -120 125 -48 49 -88 93 -88 98 0 5 -7 9
-16 9 -10 0 -14 6 -10 15 3 9 0 15 -9 15 -8 0 -70 29 -139 65 -68 36 -159 78
-202 94 -43 16 -80 34 -82 41 -4 11 141 12 752 6 636 -6 756 -5 756 6 0 10
-11 13 -37 11 -36 -2 -37 -2 -8 6 17 5 26 10 20 11 -42 9 -312 19 -575 22
-297 4 -384 12 -351 32 7 5 187 8 399 7 288 -1 407 -4 467 -15 44 -8 83 -12
87 -10 4 3 8 14 8 25 0 18 -8 19 -135 19 -122 0 -137 2 -155 20 -20 20 -20 20
-32 0 -8 -12 -23 -20 -38 -19 -14 0 -19 3 -12 6 9 3 4 10 -14 19 -22 12 -34
12 -61 3 -36 -11 -54 -6 -37 11 18 18 177 33 290 27 110 -5 112 -5 124 19 17
31 24 30 40 -3 12 -26 13 -27 21 -8 4 11 8 40 8 64 l1 44 -762 -9 c-1025 -12
-1152 -12 -1171 4 -8 7 -18 37 -22 67 -3 30 -11 55 -16 55 -5 0 -9 8 -9 17 0
9 -8 25 -17 36 -14 15 -17 33 -15 80 1 33 7 66 12 72 6 7 5 16 -3 24 -16 16
-17 328 -1 339 17 10 29 324 15 385 -11 47 -10 50 25 108 32 51 41 59 68 59
44 1 74 20 107 69 41 61 67 138 85 249 19 117 14 149 -29 188 -44 41 -70 56
-154 88 -104 40 -132 78 -205 286 -54 151 -122 272 -203 361 -23 25 -55 64
-70 88 -24 35 -30 40 -38 26 -8 -15 -11 -15 -34 0 -24 16 -24 16 -14 -4z
m-483 -705 c18 -14 18 -15 -9 -25 -30 -12 -195 -16 -184 -5 12 12 112 43 143
43 16 1 39 -5 50 -13z m784 -298 c128 -154 158 -220 139 -309 -6 -27 -22 -62
-35 -78 -13 -16 -24 -35 -24 -43 0 -37 -74 -78 -141 -78 -28 0 -39 -4 -39 -15
0 -18 -12 -19 -29 -2 -10 10 -16 7 -32 -15 -19 -26 -22 -27 -48 -13 -25 12
-29 12 -43 -4 -18 -22 -94 -27 -117 -8 -12 10 -14 9 -8 -5 5 -15 1 -17 -24
-14 -28 3 -48 19 -49 38 0 4 21 19 48 34 116 66 125 74 118 105 -5 28 7 56 93
211 53 95 145 218 163 218 5 0 18 -10 28 -22z m-140 -824 c0 -3 -9 -17 -20
-31 -26 -33 -26 -35 10 -57 32 -18 33 -37 1 -29 -13 3 -23 -2 -30 -16 -7 -12
-20 -21 -31 -21 -11 0 -30 -12 -43 -26 -15 -16 -39 -27 -64 -31 -40 -5 -41 -5
-53 33 -7 22 -19 46 -27 55 -8 9 -11 24 -7 34 5 13 4 16 -4 11 -19 -12 -14 3
16 45 l27 39 113 0 c61 0 112 -3 112 -6z m-1214 -70 c-3 -9 -6 -18 -6 -20 0
-2 -4 -4 -9 -4 -5 0 -7 9 -4 20 3 11 10 20 15 20 6 0 7 -7 4 -16z m-391 -35
c5 -14 -2 -33 -22 -61 -59 -85 -63 -96 -52 -124 7 -21 6 -31 -7 -45 -11 -12
-13 -23 -6 -36 5 -10 12 -38 15 -62 3 -27 15 -53 31 -70 14 -15 26 -35 26 -44
0 -30 32 -101 77 -168 23 -36 43 -73 43 -82 0 -9 5 -17 10 -17 6 0 10 -11 10
-24 0 -13 10 -50 22 -82 19 -49 27 -59 61 -72 34 -14 38 -19 34 -42 -4 -18 0
-29 12 -37 13 -8 17 -20 14 -36 -4 -22 -2 -24 20 -20 28 5 45 -13 28 -30 -19
-19 -12 -42 19 -60 29 -18 40 -50 20 -62 -17 -10 -11 -19 26 -43 19 -13 42
-38 50 -55 9 -18 30 -55 48 -84 46 -73 72 -157 57 -189 -6 -14 -11 -33 -11
-44 0 -22 -49 -60 -79 -60 -11 0 -25 8 -30 18 -9 14 -10 13 -11 -10 0 -35 -16
-36 -64 -3 -20 14 -47 27 -61 31 -13 3 -31 14 -41 25 -9 10 -25 19 -35 19 -10
0 -21 5 -24 10 -3 6 -21 10 -39 10 -22 0 -40 8 -56 25 -13 14 -29 25 -35 25
-6 0 -28 9 -50 20 -22 11 -47 20 -57 20 -9 0 -20 5 -23 10 -3 6 -16 10 -28 10
-12 0 -48 8 -79 17 -42 13 -58 23 -60 38 -3 17 -9 20 -45 17 -57 -5 -159 23
-195 53 -16 14 -40 25 -53 25 -27 0 -75 58 -75 92 0 13 -9 37 -20 53 -11 17
-20 40 -20 52 0 14 -10 28 -27 37 l-28 15 24 1 24 0 -21 23 c-29 31 -28 55 3
67 20 8 25 16 25 44 0 18 7 51 16 72 15 36 17 37 30 20 7 -10 15 -24 18 -30 3
-7 9 -4 16 7 16 24 45 21 64 -7 8 -14 24 -27 34 -30 11 -4 24 -18 30 -31 7
-14 20 -25 31 -25 17 0 18 6 14 43 -6 55 -21 94 -39 101 -8 3 -14 16 -14 29 0
13 -11 38 -25 56 -13 19 -29 58 -35 87 -6 30 -16 56 -21 59 -23 15 12 175 39
175 7 0 19 15 27 33 7 17 25 42 39 54 14 13 26 30 26 38 0 8 5 15 10 15 6 0
10 7 10 15 0 8 24 36 52 62 29 27 70 66 91 87 34 34 41 37 49 23 14 -26 38
-21 38 8 0 27 17 34 26 10 7 -18 34 -20 34 -2 1 13 57 54 77 56 6 1 15 -8 18
-20z m815 -33 c0 -8 -10 -22 -22 -30 -12 -9 -18 -16 -13 -16 6 0 -5 -9 -22
-20 -18 -11 -33 -24 -33 -30 0 -14 5 -13 42 10 18 11 36 20 41 20 16 0 5 -17
-23 -33 -16 -10 -30 -24 -30 -32 0 -7 -10 -15 -22 -17 -12 -2 -23 -9 -26 -17
-3 -10 3 -12 27 -6 39 8 40 0 1 -20 -33 -17 -54 -20 -46 -6 11 17 -6 41 -28
41 -17 0 -18 -2 -6 -10 8 -5 11 -12 7 -16 -10 -10 -59 14 -52 25 3 6 -2 14
-10 19 -21 11 -10 36 21 51 32 14 34 14 34 -4 0 -8 5 -15 11 -15 6 0 9 -7 5
-15 -3 -8 -2 -15 2 -15 12 0 27 14 30 29 2 8 16 31 33 52 16 20 29 44 29 53 0
10 9 16 25 16 15 0 25 -6 25 -14z m-87 -38 c-13 -12 -26 -19 -29 -15 -4 4 1
14 12 22 29 22 41 18 17 -7z m402 -50 c-4 -13 -14 -33 -21 -46 -8 -12 -14 -38
-12 -58 1 -22 -3 -39 -12 -44 -8 -6 -11 -10 -6 -10 12 0 -24 -39 -49 -53 -18
-9 -19 -9 -6 6 7 10 17 32 20 50 5 21 12 31 23 29 11 -2 14 4 11 21 -5 26 34
127 49 127 5 0 6 -10 3 -22z m-230 -61 c-7 -25 -121 -134 -131 -125 -2 3 2 11
11 18 19 16 19 40 0 40 -8 0 -15 5 -15 10 0 6 11 10 25 10 14 0 25 -5 25 -12
0 -6 3 -8 6 -5 4 4 1 13 -5 21 -17 21 -4 39 25 33 17 -3 28 3 40 20 19 30 27
25 19 -10z m233 -55 c6 -18 -15 -14 -22 4 -4 10 -1 14 6 12 6 -2 14 -10 16
-16z m-460 -14 c16 -16 15 -48 -2 -48 -8 0 -16 13 -18 30 -5 32 1 37 20 18z
m542 -12 c0 -2 -8 -10 -17 -17 -16 -13 -17 -12 -4 4 13 16 21 21 21 13z m20
-29 c0 -2 -10 -12 -21 -23 -22 -19 -22 -19 -10 4 10 18 31 31 31 19z m17 -39
c-3 -7 -5 -2 -5 12 0 14 2 19 5 13 2 -7 2 -19 0 -25z m-295 -20 c-2 -11 -8
-16 -13 -11 -5 5 -6 19 -2 32 4 15 8 19 13 11 4 -7 5 -21 2 -32z m-274 -8 c7
-11 8 -20 2 -20 -5 0 -14 9 -20 20 -6 11 -7 20 -3 20 5 0 14 -9 21 -20z m422
-11 c0 -5 -4 -9 -10 -9 -5 0 -10 7 -10 16 0 8 5 12 10 9 6 -3 10 -10 10 -16z
m251 3 c16 4 14 -39 -4 -60 -9 -11 -12 -11 -18 5 -11 26 -11 81 0 65 4 -7 14
-12 22 -10z m119 8 c0 -5 -4 -10 -10 -10 -5 0 -10 5 -10 10 0 6 5 10 10 10 6
0 10 -4 10 -10z m-256 -24 c-8 -31 15 -45 33 -20 9 12 10 20 3 22 -12 4 -3 22
11 22 14 0 11 -41 -7 -93 -16 -46 -34 -55 -34 -16 0 13 -12 25 -35 35 l-35 14
32 30 c40 36 40 36 32 6z m-334 -21 c0 -8 -4 -15 -10 -15 -5 0 -10 7 -10 15 0
8 5 15 10 15 6 0 10 -7 10 -15z m240 -1 c0 -8 -4 -12 -10 -9 -5 3 -10 10 -10
16 0 5 5 9 10 9 6 0 10 -7 10 -16z m330 0 c0 -3 -7 -21 -15 -41 -8 -19 -15
-44 -15 -55 0 -11 -7 -26 -15 -34 -9 -9 -15 -34 -15 -60 0 -24 -3 -44 -7 -43
-5 0 -18 13 -31 29 -23 29 -23 29 -2 40 12 6 20 21 20 36 0 13 7 27 15 30 8 4
15 10 15 16 0 5 -4 6 -10 3 -13 -8 -13 25 0 45 9 13 11 13 20 0 7 -11 10 -7
10 17 0 25 4 31 15 27 8 -4 15 -8 15 -10z m-163 -46 c-3 -8 -6 -5 -6 6 -1 11
2 17 5 13 3 -3 4 -12 1 -19z m-92 -18 c27 -30 12 -34 -15 -5 -13 14 -19 25
-13 25 5 0 18 -9 28 -20z m135 -6 c0 -8 -4 -12 -10 -9 -5 3 -10 10 -10 16 0 5
5 9 10 9 6 0 10 -7 10 -16z m0 -60 c0 -8 -4 -14 -10 -14 -5 0 -10 9 -10 21 0
11 5 17 10 14 6 -3 10 -13 10 -21z m-420 -25 c0 -5 -4 -9 -10 -9 -5 0 -10 7
-10 16 0 8 5 12 10 9 6 -3 10 -10 10 -16z m185 -29 c4 -6 -6 -10 -22 -10 -22
0 -25 2 -13 10 19 12 27 12 35 0z m5 -34 c0 -2 -8 -10 -17 -17 -16 -13 -17
-12 -4 4 13 16 21 21 21 13z m260 -16 c0 -23 -10 -26 -28 -8 -18 18 -15 28 8
28 13 0 20 -7 20 -20z m41 -63 c-1 -12 -15 -9 -19 4 -3 6 1 10 8 8 6 -3 11 -8
11 -12z m2379 -13 c0 -2 -12 -4 -27 -4 -21 0 -24 3 -14 9 13 8 41 5 41 -5z
m-103 -10 c-3 -3 -12 -4 -19 -1 -8 3 -5 6 6 6 11 1 17 -2 13 -5z m-324 -11
c-7 -2 -19 -2 -25 0 -7 3 -2 5 12 5 14 0 19 -2 13 -5z m-1069 -74 c56 -6 105
-14 111 -20 5 -5 23 -9 40 -9 42 0 64 -15 47 -32 -10 -10 -17 -10 -32 0 -11 6
-23 12 -27 12 -13 0 31 -27 52 -33 11 -2 -23 -5 -76 -6 -75 -1 -99 2 -109 14
-7 8 -19 15 -28 15 -20 0 -112 59 -112 72 0 6 7 7 17 4 9 -4 61 -11 117 -17z
m1081 1 c18 -20 17 -20 -99 -20 -76 0 -115 4 -111 10 3 6 34 10 68 10 34 0 69
5 77 10 23 15 45 12 65 -10z m-515 -11 c0 -17 -60 -36 -140 -45 l-75 -8 45 -7
c70 -12 130 -26 137 -33 4 -3 -26 -6 -65 -6 -39 0 -73 4 -77 9 -6 11 -105 41
-143 44 -32 3 -53 34 -32 47 21 14 350 13 350 -1z m265 -9 c-3 -5 -20 -10 -36
-10 -18 0 -28 4 -24 10 3 6 20 10 36 10 18 0 28 -4 24 -10z m62 -97 c-20 -2
-52 -2 -70 0 -17 2 0 4 38 4 39 0 53 -2 32 -4z m136 0 c-7 -2 -19 -2 -25 0 -7
3 -2 5 12 5 14 0 19 -2 13 -5z m460 -10 c-7 -2 -19 -2 -25 0 -7 3 -2 5 12 5
14 0 19 -2 13 -5z"/>
<path d="M2700 2846 l-64 -34 42 -7 c59 -10 202 8 202 26 0 12 -74 49 -97 49
-10 -1 -47 -16 -83 -34z"/>
<path d="M705 1360 c3 -5 8 -10 11 -10 2 0 4 5 4 10 0 6 -5 10 -11 10 -5 0 -7
-4 -4 -10z"/>
<path d="M2550 4005 c0 -8 5 -15 10 -15 6 0 10 7 10 15 0 8 -4 15 -10 15 -5 0
-10 -7 -10 -15z"/>
<path d="M1350 4000 c0 -5 5 -10 10 -10 6 0 10 5 10 10 0 6 -4 10 -10 10 -5 0
-10 -4 -10 -10z"/>
<path d="M1640 3999 c0 -5 -8 -9 -17 -7 -10 1 -20 -2 -23 -7 -3 -6 7 -11 23
-13 22 -3 27 1 27 17 0 12 -2 21 -5 21 -3 0 -5 -5 -5 -11z"/>
<path d="M1450 3985 c0 -9 9 -15 21 -15 18 0 19 2 9 15 -7 8 -16 15 -21 15 -5
0 -9 -7 -9 -15z"/>
<path d="M1411 3934 c0 -11 3 -14 6 -6 3 7 2 16 -1 19 -3 4 -6 -2 -5 -13z"/>
<path d="M1374 3915 c3 -8 1 -15 -4 -15 -6 0 -10 -7 -10 -15 0 -14 3 -13 25 1
20 13 23 19 14 30 -15 19 -33 18 -25 -1z"/>
<path d="M1555 3920 c-3 -5 -2 -10 4 -10 5 0 13 5 16 10 3 6 2 10 -4 10 -5 0
-13 -4 -16 -10z"/>
<path d="M2585 3820 c-3 -5 -1 -10 6 -10 7 0 21 -7 31 -17 11 -9 18 -11 18 -5
0 7 12 12 28 12 l27 1 -25 14 c-29 17 -76 19 -85 5z"/>
<path d="M1373 3813 c-18 -7 -16 -23 2 -23 8 0 15 7 15 15 0 8 -1 15 -2 14 -2
0 -9 -3 -15 -6z"/>
<path d="M2030 3630 c0 -5 5 -10 10 -10 6 0 10 5 10 10 0 6 -4 10 -10 10 -5 0
-10 -4 -10 -10z"/>
<path d="M1094 3425 c-8 -20 2 -45 18 -45 9 0 8 3 -2 10 -12 8 -13 13 -2 30 7
12 8 20 2 20 -6 0 -13 -7 -16 -15z"/>
<path d="M1022 3260 c-95 -22 -131 -136 -82 -260 39 -99 150 -261 150 -219 0
8 -17 38 -39 66 -47 63 -54 102 -41 229 12 112 26 140 74 149 52 10 71 3 74
-28 4 -30 14 -34 32 -12 10 12 7 19 -14 38 -14 13 -43 29 -64 35 -43 13 -43
13 -90 2z"/>
<path d="M1176 3065 c-105 -72 -121 -100 -92 -170 11 -24 21 -35 36 -35 31 0
60 18 60 38 0 10 12 41 26 69 17 36 24 64 22 91 l-3 39 -49 -32z"/>
<path d="M1600 2771 c0 -12 5 -21 10 -21 6 0 10 6 10 14 0 8 -4 18 -10 21 -5
3 -10 -3 -10 -14z"/>
<path d="M1665 2740 c-8 -16 -15 -35 -15 -43 0 -8 -7 -20 -15 -27 -8 -7 -15
-23 -15 -36 0 -13 -8 -28 -17 -34 -15 -10 -14 -11 7 -6 14 3 31 6 38 6 6 0 12
5 12 12 0 7 12 24 26 39 25 26 25 27 5 22 -27 -7 -27 5 1 34 17 18 18 23 6 23
-11 0 -14 6 -11 20 8 30 -4 24 -22 -10z"/>
<path d="M1481 2623 c-1 -18 4 -33 9 -33 12 0 12 17 0 45 -7 17 -9 15 -9 -12z"/>
<path d="M1687 2627 c-11 -29 -9 -53 4 -40 6 6 9 21 7 34 -3 21 -4 22 -11 6z"/>
<path d="M1260 2605 c7 -9 15 -13 17 -11 7 7 -7 26 -19 26 -6 0 -6 -6 2 -15z"/>
<path d="M1770 2585 c0 -8 4 -15 10 -15 5 0 7 7 4 15 -4 8 -8 15 -10 15 -2 0
-4 -7 -4 -15z"/>
<path d="M1471 2564 c0 -11 3 -14 6 -6 3 7 2 16 -1 19 -3 4 -6 -2 -5 -13z"/>
<path d="M1420 2534 c0 -8 5 -12 10 -9 6 4 8 11 5 16 -9 14 -15 11 -15 -7z"/>
<path d="M1586 2514 c-9 -22 -8 -24 9 -18 8 4 15 12 15 20 0 19 -16 18 -24 -2z"/>
<path d="M2002 2455 c0 -16 2 -22 5 -12 2 9 2 23 0 30 -3 6 -5 -1 -5 -18z"/>
<path d="M1572 2410 c-6 -22 -12 -52 -12 -66 0 -22 2 -25 15 -14 8 7 15 27 15
44 0 17 7 42 16 54 14 20 14 22 -3 22 -12 0 -22 -13 -31 -40z"/>
<path d="M2041 2394 c0 -11 3 -14 6 -6 3 7 2 16 -1 19 -3 4 -6 -2 -5 -13z"/>
<path d="M2072 2390 c0 -14 2 -19 5 -12 2 6 2 18 0 25 -3 6 -5 1 -5 -13z"/>
<path d="M1535 2210 l-30 -8 27 -1 c15 0 30 4 33 9 3 6 5 9 3 9 -2 -1 -16 -5
-33 -9z"/>
<path d="M1577 2144 c-8 -8 1 -24 14 -24 5 0 9 7 9 15 0 15 -12 20 -23 9z"/>
<path d="M1700 2019 c0 -5 5 -7 10 -4 6 3 10 8 10 11 0 2 -4 4 -10 4 -5 0 -10
-5 -10 -11z"/>
<path d="M4540 999 c-14 -5 -30 -16 -35 -23 -6 -7 -26 -23 -45 -35 -33 -20
-33 -21 -10 -21 13 0 48 10 77 22 42 17 53 26 53 45 0 25 -3 26 -40 12z"/>
</g>
</svg>
