<?xml version="1.0" standalone="no"?>
<!DOCTYPE svg PUBLIC "-//W3C//DTD SVG 20010904//EN"
 "http://www.w3.org/TR/2001/REC-SVG-20010904/DTD/svg10.dtd">
<svg version="1.0" xmlns="http://www.w3.org/2000/svg"
 width="700.000000pt" height="700.000000pt" viewBox="0 0 700.000000 700.000000"
 preserveAspectRatio="xMidYMid meet">
<metadata>
Created by potrace 1.11, written by Peter Selinger 2001-2013
</metadata>
<g transform="translate(0.000000,700.000000) scale(0.100000,-0.100000)"
fill="#000000" stroke="none">
<path d="M1717 6994 c-1 -1 -240 -5 -532 -9 -291 -3 -549 -7 -572 -7 -23 -1
-40 -5 -37 -10 20 -31 478 -207 1024 -393 330 -112 481 -156 570 -168 74 -9
104 -50 81 -112 -12 -35 -14 -65 -4 -65 4 0 32 19 62 43 79 61 107 72 137 52
12 -8 43 -46 67 -83 77 -119 98 -126 241 -83 103 31 317 53 546 55 329 4 447
-14 575 -88 50 -29 81 -67 116 -141 33 -68 159 -192 248 -243 40 -23 75 -42
77 -42 16 0 172 -121 257 -200 32 -30 65 -59 73 -63 25 -14 49 2 75 51 l24 47
3 -49 c4 -57 -14 -89 -68 -121 -99 -58 -150 -148 -118 -204 15 -28 39 -30 134
-16 80 13 78 -47 -6 -145 -25 -29 -49 -59 -54 -67 -11 -20 9 -33 51 -33 70 0
249 -153 449 -384 102 -119 126 -144 120 -126 -3 8 -7 38 -10 65 -71 643 -252
1242 -392 1301 -19 8 -34 16 -34 18 0 7 247 -6 365 -19 22 -3 65 -7 95 -10
112 -10 266 -25 290 -29 14 -3 68 -10 120 -16 52 -6 118 -15 145 -20 55 -10
91 -16 205 -31 41 -6 86 -12 100 -14 14 -2 63 -7 110 -10 47 -4 99 -9 115 -12
17 -2 166 -7 333 -10 l302 -5 0 702 0 702 -2640 -3 c-1453 -2 -2642 -4 -2643
-5z m997 -637 c26 -19 4 -59 -47 -85 -48 -24 -77 -16 -77 24 0 55 79 94 124
61z"/>
<path d="M2496 5984 c-61 -61 -118 -141 -209 -291 -108 -180 -174 -315 -237
-483 -27 -73 -64 -157 -82 -187 -40 -68 -125 -145 -210 -190 -148 -80 -175
-97 -211 -132 -37 -34 -53 -60 -66 -106 -3 -11 -5 -74 -4 -140 2 -255 100
-461 265 -558 36 -21 77 -50 91 -65 43 -45 70 -143 82 -302 3 -41 8 -88 10
-105 23 -178 24 -1047 1 -1161 -2 -12 -7 -43 -11 -70 -3 -27 -7 -58 -9 -69 -2
-11 -7 -47 -11 -81 -4 -34 -10 -66 -14 -72 -4 -8 -239 -11 -786 -13 -429 -1
-820 -6 -870 -10 -193 -18 -231 -41 -222 -140 6 -71 22 -95 72 -114 47 -18 90
-23 209 -24 49 -1 87 -3 85 -5 -3 -3 -56 -19 -119 -36 -152 -40 -149 -39 -130
-50 35 -20 136 -26 540 -36 334 -7 473 -11 480 -13 7 -2 -57 -38 -198 -112
-176 -93 -410 -251 -598 -404 -93 -76 -259 -250 -286 -300 -45 -84 -55 -164
-57 -452 l-2 -263 3502 0 3501 0 -5 793 c-3 435 -7 808 -11 827 -3 19 -8 56
-11 81 -8 61 -37 107 -72 114 -116 24 -175 73 -252 211 -86 155 -106 185 -156
237 -119 125 -286 239 -770 527 -603 359 -715 443 -715 532 0 13 15 69 34 123
52 155 56 224 9 172 -60 -65 -133 -253 -158 -407 -3 -19 -10 -57 -15 -85 -5
-27 -12 -75 -16 -105 -3 -30 -8 -63 -10 -73 -1 -9 -6 -54 -9 -100 -8 -117 -22
-249 -31 -291 -3 -12 -7 -39 -10 -61 -11 -80 -64 -286 -85 -328 -65 -128 -223
-322 -438 -537 -232 -232 -412 -370 -482 -370 -72 -1 -168 -77 -244 -195 -117
-181 -297 -282 -478 -270 -31 2 -61 6 -67 10 -5 3 -29 7 -52 7 -50 1 -77 -25
-103 -99 -9 -26 -21 -59 -26 -74 -6 -14 -21 -37 -35 -52 -70 -76 -177 6 -423
323 -159 205 -227 287 -293 354 -27 27 -47 51 -44 53 3 3 20 8 38 12 49 10 64
48 50 124 -19 102 5 119 168 117 101 -1 145 -3 327 -14 159 -10 177 -19 185
-98 7 -65 54 -138 152 -241 210 -218 287 -219 242 -4 -25 120 -22 121 241 82
291 -44 300 57 37 434 -58 84 -103 156 -98 160 5 5 71 54 146 110 214 159 308
274 365 444 30 88 126 302 142 317 4 3 17 27 31 53 27 52 108 158 125 164 6 2
16 -17 23 -42 13 -48 45 -74 77 -61 27 10 48 77 52 171 5 97 -6 145 -33 145
-10 0 -40 -18 -69 -40 -28 -22 -67 -45 -85 -51 -32 -12 -35 -10 -70 28 -39 41
-79 131 -87 198 -8 55 -20 75 -46 75 -30 0 -41 -9 -56 -47 -16 -40 -20 -104
-10 -160 12 -60 21 -143 16 -143 -2 0 -15 21 -28 47 -42 82 -109 99 -168 44
-56 -52 -58 -134 -6 -212 27 -41 101 -95 145 -106 65 -15 110 -52 110 -89 0
-19 -5 -24 -25 -24 -56 0 -142 60 -325 228 -60 55 -126 97 -133 85 -3 -5 1
-25 8 -47 39 -112 31 -113 -120 -15 -127 83 -257 225 -329 362 -50 95 -93 224
-78 239 8 8 20 -3 44 -38 18 -27 48 -64 66 -83 27 -28 35 -32 43 -20 22 36 -9
151 -85 312 -65 139 -81 191 -81 274 0 91 15 109 100 123 72 12 145 58 207
132 76 89 104 152 123 269 6 40 34 59 105 74 37 8 432 9 560 1 199 -12 288
-18 315 -20 117 -12 163 -17 185 -22 14 -2 36 -6 50 -9 69 -13 88 -19 117 -37
43 -26 68 -17 94 34 26 51 34 117 19 162 -10 30 -22 41 -83 70 -89 43 -391
135 -627 192 -8 2 -42 10 -76 18 -34 8 -72 17 -85 20 -13 3 -80 17 -149 31
-88 19 -160 27 -242 29 l-117 1 -34 33 c-51 49 -104 61 -254 57 -70 -1 -166
-7 -213 -11 -47 -5 -157 -9 -245 -9 -142 0 -165 2 -206 21 -87 40 -92 109 -22
269 82 188 111 294 119 445 5 85 -5 128 -32 137 -6 2 -28 -13 -48 -33z m1105
-1110 c22 -13 -34 -32 -95 -32 -96 1 -150 29 -76 40 39 6 158 1 171 -8z
m-1316 -486 c50 -33 102 -112 207 -314 134 -255 222 -383 306 -441 36 -26 40
-32 27 -43 -19 -16 -241 -23 -310 -9 -27 5 -63 12 -80 15 -173 29 -348 151
-416 290 -74 151 -32 332 111 470 62 60 103 68 155 32z m437 -1248 c70 -19 81
-34 73 -105 -13 -122 -70 -193 -145 -179 -49 8 -126 52 -160 91 -59 67 -46
146 31 181 48 22 141 28 201 12z m2322 -201 c88 -43 122 -48 141 -22 12 16 16
15 51 -12 160 -118 398 -452 449 -629 29 -99 18 -215 -31 -323 -8 -17 -14 -34
-14 -39 0 -4 -38 -83 -85 -176 -47 -92 -85 -170 -85 -173 0 -12 77 29 168 88
183 119 214 116 257 -28 22 -76 28 -184 14 -255 -31 -153 -139 -313 -260 -383
-24 -14 -80 -35 -124 -47 -76 -21 -277 -90 -320 -110 -11 -6 -49 -21 -85 -34
-36 -13 -183 -74 -326 -134 -303 -127 -460 -187 -524 -197 -25 -4 -53 -9 -62
-11 -9 -1 -33 2 -53 7 -52 15 -78 59 -72 124 16 172 324 843 457 998 45 52 88
129 204 362 195 395 264 565 267 666 2 64 0 72 -57 215 -72 182 -67 189 90
113z m-1488 -227 c41 -40 128 -145 149 -180 11 -19 -21 -1 -61 35 -17 15 -48
41 -68 57 -65 51 -92 106 -52 106 7 0 21 -8 32 -18z m-325 -39 c15 -15 34 -42
42 -59 14 -26 14 -34 3 -49 -21 -29 -45 -11 -77 60 -45 101 -33 119 32 48z
m-173 -312 c11 -6 11 -11 -3 -24 -29 -30 -162 -15 -152 17 7 21 121 26 155 7z
m-336 -71 c51 -104 89 -300 58 -300 -31 0 -98 185 -107 293 -8 86 9 88 49 7z
m-1452 -571 c120 -13 145 -25 103 -48 -40 -21 -237 -30 -353 -17 -25 3 -67 8
-95 12 -27 3 -61 7 -75 9 -14 2 -43 6 -65 9 -206 27 -281 38 -285 42 -8 8 691
2 770 -7z"/>
<path d="M2208 3834 c-39 -20 -48 -62 -19 -85 44 -36 131 -49 189 -28 64 22
43 84 -38 113 -55 20 -96 20 -132 0z"/>
<path d="M4847 4464 c-28 -15 -47 -42 -47 -68 0 -18 27 -27 92 -30 43 -1 55
-7 79 -33 42 -48 90 -232 101 -386 3 -56 13 -54 31 6 9 28 25 83 36 121 11 38
23 94 26 123 9 98 -40 169 -165 236 -77 42 -116 50 -153 31z"/>
<path d="M4693 4154 c-10 -27 4 -119 27 -173 45 -104 131 -143 183 -82 45 53
23 106 -84 205 -74 67 -113 83 -126 50z"/>
</g>
</svg>
